<?xml version="1.0" encoding="UTF-8" standalone="no"?>
<svg
   width="548.86255"
   height="90.881493"
   viewBox="0 0 414.20827 68.644532"
   version="1.1"
   id="svg9"
   xmlns="http://www.w3.org/2000/svg"
   xmlns:svg="http://www.w3.org/2000/svg">
  <defs
     id="defs9" />
  <g
     id="surface1"
     transform="translate(-358.8292,-0.80078095)">
    <path
       style="fill:#ff542e;fill-opacity:1;fill-rule:nonzero;stroke:none"
       d="m 371.51562,69.445312 c -2.14062,0 -4.42968,-0.410156 -6.86718,-1.226562 -2.44141,-0.808594 -4.54297,-2.167969 -6.3086,-4.078125 l 2.08985,-8.230469 c 1.30078,2.183594 2.97656,3.917969 5.01953,5.195313 2.04687,1.277343 4.23047,1.917969 6.54687,1.917969 2.23438,0 3.91016,-0.546876 5.01953,-1.636719 1.11719,-1.09375 1.67579,-2.429688 1.67579,-4.011719 0,-1.8125 -0.58985,-3.136719 -1.77344,-3.972656 -1.1875,-0.835938 -2.2461,-1.417969 -3.17578,-1.746094 l -5.64453,-2.160156 c -1.02344,-0.421875 -2.25391,-1.039063 -3.69141,-1.851563 -1.44531,-0.816406 -2.69922,-1.992187 -3.76563,-3.527343 -1.07031,-1.53125 -1.60937,-3.527344 -1.60937,-5.996094 0,-2.230469 0.53906,-4.277344 1.60937,-6.140625 1.06641,-1.859375 2.57422,-3.332031 4.52735,-4.425781 1.95312,-1.09375 4.2539,-1.640626 6.90625,-1.640626 2.08594,0 4.26953,0.375 6.55078,1.117188 2.27344,0.742188 4.19922,1.996094 5.78125,3.761719 l -2.09375,8.234375 c -1.10938,-2.042969 -2.62109,-3.671875 -4.52734,-4.878906 -1.90625,-1.207032 -3.87891,-1.8125 -5.92188,-1.8125 -1.90625,0 -3.40625,0.53125 -4.5,1.601562 -1.08984,1.066406 -1.63672,2.296875 -1.63672,3.691406 0,1.117188 0.3711,2.121094 1.11719,3.007813 0.74609,0.878906 1.85937,1.601562 3.34375,2.160156 l 5.64453,2.160156 c 1.02734,0.371094 2.29297,0.976563 3.80469,1.8125 1.50781,0.839844 2.84375,2.050781 4.0039,3.632813 1.16407,1.582031 1.7461,3.71875 1.7461,6.414062 0,3.769532 -1.3125,6.816406 -3.94141,9.136719 -2.625,2.328125 -5.9375,3.492187 -9.92969,3.492187"
       id="path1" />
    <path
       style="fill:#ff542e;fill-opacity:1;fill-rule:nonzero;stroke:none"
       d="M 404.69141,68.605469 V 1.640625 h 7.52343 v 31.042969 c 1.57813,-2.1875 3.53125,-3.859375 5.85547,-5.023438 2.32422,-1.164062 4.8086,-1.746094 7.45703,-1.746094 2.97266,0 5.72657,0.734376 8.26172,2.199219 2.53125,1.464844 4.58594,3.578125 6.16797,6.34375 1.57813,2.769531 2.36719,6.132813 2.36719,10.085938 v 24.0625 h -7.52344 V 45.582031 c 0,-3.296875 -0.98828,-6.214843 -2.96484,-8.753906 -1.97266,-2.53125 -4.75,-3.796875 -8.33203,-3.796875 -2.92188,0 -5.53516,1.054688 -7.83985,3.171875 -2.30078,2.113281 -3.44922,5.171875 -3.44922,9.175781 v 23.226563 z m 0,0"
       id="path2" />
    <path
       style="fill:#ff542e;fill-opacity:1;fill-rule:nonzero;stroke:none"
       d="M 463.30469,68.605469 V 26.753906 h 7.52343 v 41.851563 z m 3.76562,-49.390625 c -1.39453,0 -2.57812,-0.488282 -3.55469,-1.464844 -0.97656,-0.976562 -1.46484,-2.164062 -1.46484,-3.558594 0,-1.4375 0.48828,-2.636718 1.46484,-3.59375 0.97657,-0.953125 2.16016,-1.429687 3.55469,-1.429687 1.4375,0 2.63281,0.476562 3.58594,1.429687 0.95312,0.957032 1.43359,2.15625 1.43359,3.59375 0,1.394532 -0.48047,2.582032 -1.43359,3.558594 -0.95313,0.976562 -2.14844,1.464844 -3.58594,1.464844"
       id="path3" />
    <path
       style="fill:#ff542e;fill-opacity:1;fill-rule:nonzero;stroke:none"
       d="M 497.52344,68.605469 V 33.03125 h -9.48047 v -6.277344 h 9.6914 V 14.75 c 0,-4.554688 1.34766,-8.019531 4.04297,-10.390625 2.69532,-2.371094 5.90235,-3.558594 9.61328,-3.558594 1.39844,0 2.83204,0.160157 4.29688,0.484375 1.45703,0.328125 2.83984,0.886719 4.14062,1.675782 l -1.80859,7.328124 c -1.95312,-2.140624 -4.23047,-3.210937 -6.83203,-3.210937 -1.57813,0 -3.03125,0.53125 -4.35156,1.601563 -1.32813,1.070312 -1.99219,3.140624 -1.99219,6.207031 v 11.867187 h 10.38281 v 6.277344 h -10.17187 v 35.574219 z m 0,0"
       id="path4" />
    <path
       style="fill:#ff542e;fill-opacity:1;fill-rule:nonzero;stroke:none"
       d="M 537.32422,68.605469 V 33.03125 h -9.48047 v -6.277344 h 9.69141 V 12.796875 h 7.10937 v 13.957031 h 10.38281 v 6.277344 h -10.17968 v 35.574219 z m 0,0"
       id="path5" />
    <path
       style="fill:#ff542e;fill-opacity:1;fill-rule:nonzero;stroke:none"
       d="m 590.08203,69.445312 c -4.36719,0 -8.28125,-0.976562 -11.74219,-2.933593 -3.46093,-1.953125 -6.18359,-4.613281 -8.16015,-7.980469 -1.97266,-3.375 -2.95703,-7.132812 -2.95703,-11.269531 0,-3.953125 0.95312,-7.546875 2.85937,-10.78125 1.90234,-3.230469 4.46875,-5.800781 7.69922,-7.710938 3.23047,-1.902343 6.79687,-2.855469 10.69922,-2.855469 3.85547,0 7.38672,0.917969 10.59765,2.757813 3.20313,1.832031 5.75782,4.308594 7.66797,7.425781 1.89844,3.117188 2.85157,6.652344 2.85157,10.605469 v 3.074219 h -27.32032 c -1.20703,0 -2.4375,-0.05078 -3.69531,-0.144532 -1.25391,-0.08984 -2.48437,-0.230468 -3.69141,-0.417968 0.50782,3.722656 2.19141,6.835937 5.04688,9.34375 2.85937,2.515625 6.26562,3.769531 10.21875,3.769531 2.64844,0 5.10937,-0.601563 7.39062,-1.8125 2.27344,-1.207031 4.10547,-2.8125 5.5,-4.8125 l 2.08985,8.582031 c -1.9961,1.625 -4.28516,2.894532 -6.85938,3.800782 -2.58203,0.90625 -5.3125,1.359374 -8.19531,1.359374 M 574.67969,44.117188 c 2.50781,-0.417969 5.04297,-0.625 7.59765,-0.625 h 13.8711 c 1.02343,0 2.03125,0.03516 3.03515,0.105468 0.9961,0.07031 2.00391,0.152344 3.02344,0.242188 -0.64844,-3.253906 -2.27344,-5.9375 -4.875,-8.054688 -2.59766,-2.117187 -5.55078,-3.179687 -8.85156,-3.179687 -3.39063,0 -6.36328,1.128906 -8.91797,3.386719 -2.55859,2.253906 -4.18359,4.964843 -4.88281,8.125"
       id="path6" />
    <path
       style="fill:#ff542e;fill-opacity:1;fill-rule:nonzero;stroke:none"
       d="m 645.98047,69.164062 c -3.8086,0 -7.29297,-0.964843 -10.45313,-2.890624 -3.16015,-1.929688 -5.67968,-4.523438 -7.5625,-7.78125 -1.8789,-3.253907 -2.82031,-6.859376 -2.82031,-10.816407 0,-3.953125 0.94141,-7.554687 2.82031,-10.808593 1.88282,-3.257813 4.40235,-5.851563 7.5625,-7.78125 3.16016,-1.925782 6.64453,-2.890626 10.45313,-2.890626 2.88281,0 5.58984,0.53125 8.12109,1.601563 2.53516,1.070313 4.73047,2.558594 6.58594,4.460937 v -5.503906 h 6.97266 v 41.851563 h -6.97266 v -5.507813 c -1.85547,1.859375 -4.05078,3.335938 -6.58594,4.429688 -2.53125,1.089844 -5.23828,1.636718 -8.12109,1.636718 m 0.98047,-6.835937 c 2.64453,0 5.05078,-0.660156 7.21484,-1.984375 2.15625,-1.324219 3.875,-3.09375 5.15234,-5.304688 1.28125,-2.210937 1.91797,-4.664062 1.91797,-7.363281 0,-2.695312 -0.63672,-5.144531 -1.91797,-7.355469 -1.27734,-2.210937 -2.99609,-3.980468 -5.15234,-5.304687 -2.16406,-1.324219 -4.57031,-1.984375 -7.21484,-1.984375 -2.65235,0 -5.05469,0.660156 -7.21485,1.984375 -2.16406,1.324219 -3.88281,3.09375 -5.16015,5.304687 -1.28125,2.210938 -1.91797,4.660157 -1.91797,7.355469 0,2.699219 0.63672,5.152344 1.91797,7.363281 1.27734,2.210938 2.99609,3.980469 5.16015,5.304688 2.16016,1.324219 4.5625,1.984375 7.21485,1.984375"
       id="path7" />
    <path
       style="fill:#ff542e;fill-opacity:1;fill-rule:nonzero;stroke:none"
       d="m 700.27734,69.445312 c -2.13672,0 -4.42578,-0.410156 -6.86718,-1.226562 -2.44141,-0.808594 -4.54297,-2.167969 -6.3086,-4.078125 l 2.08985,-8.230469 c 1.30468,2.183594 2.97656,3.917969 5.01953,5.195313 2.04687,1.277343 4.23437,1.917969 6.55859,1.917969 2.22656,0 3.90234,-0.546876 5.01563,-1.636719 1.11328,-1.09375 1.66796,-2.429688 1.66796,-4.011719 0,-1.8125 -0.58984,-3.136719 -1.77343,-3.972656 -1.1875,-0.835938 -2.2461,-1.417969 -3.17578,-1.746094 l -5.64454,-2.160156 c -1.02343,-0.421875 -2.25,-1.039063 -3.6914,-1.851563 -1.44141,-0.816406 -2.69922,-1.992187 -3.76563,-3.527343 -1.0664,-1.53125 -1.59765,-3.527344 -1.59765,-5.996094 0,-2.230469 0.53125,-4.277344 1.59765,-6.140625 1.06641,-1.859375 2.57813,-3.332031 4.52735,-4.425781 1.95312,-1.09375 4.2539,-1.640626 6.90625,-1.640626 2.08984,0 4.27343,0.375 6.55078,1.117188 2.27734,0.742188 4.20703,1.996094 5.78906,3.761719 l -2.09766,8.234375 c -1.11328,-2.042969 -2.62109,-3.671875 -4.52734,-4.878906 -1.91016,-1.207032 -3.88281,-1.8125 -5.92578,-1.8125 -1.90625,0 -3.40625,0.53125 -4.49609,1.601562 -1.09375,1.066406 -1.64063,2.296875 -1.64063,3.691406 0,1.117188 0.375,2.121094 1.11719,3.007813 0.74609,0.878906 1.85937,1.601562 3.34375,2.160156 l 5.65234,2.160156 c 1.02344,0.371094 2.28906,0.976563 3.79688,1.8125 1.50781,0.839844 2.84375,2.050781 4.00781,3.632813 1.16016,1.582031 1.74219,3.71875 1.74219,6.414062 0,3.769532 -1.3125,6.816406 -3.9375,9.136719 -2.62891,2.328125 -5.9375,3.492187 -9.9336,3.492187"
       id="path8" />
    <path
       style="fill:#ff542e;fill-opacity:1;fill-rule:nonzero;stroke:none"
       d="m 753.38281,69.445312 c -4.36719,0 -8.28125,-0.976562 -11.74219,-2.933593 -3.46093,-1.953125 -6.17578,-4.613281 -8.14843,-7.980469 -1.98047,-3.375 -2.96875,-7.132812 -2.96875,-11.269531 0,-3.953125 0.95312,-7.546875 2.86328,-10.78125 1.89844,-3.230469 4.46484,-5.800781 7.69531,-7.710938 3.23047,-1.902343 6.79688,-2.855469 10.70313,-2.855469 3.85937,0 7.39062,0.917969 10.59375,2.757813 3.20703,1.832031 5.76171,4.308594 7.66796,7.425781 1.90625,3.117188 2.85938,6.652344 2.85938,10.605469 v 3.074219 h -27.32422 c -1.21094,0 -2.44141,-0.05078 -3.69922,-0.144532 -1.2539,-0.08984 -2.48437,-0.230468 -3.6914,-0.417968 0.51562,3.722656 2.19921,6.835937 5.05859,9.34375 2.85547,2.515625 6.26172,3.769531 10.21094,3.769531 2.64453,0 5.10547,-0.601563 7.38672,-1.8125 2.27343,-1.207031 4.10937,-2.8125 5.5,-4.8125 l 2.08984,8.582031 c -1.99609,1.625 -4.28125,2.894532 -6.85938,3.800782 -2.57812,0.90625 -5.3125,1.359374 -8.19531,1.359374 M 737.98047,44.117188 c 2.51172,-0.417969 5.04297,-0.625 7.60156,-0.625 h 13.87109 c 1.01954,0 2.03125,0.03516 3.03125,0.105468 0.9961,0.07031 2.00391,0.152344 3.02735,0.242188 -0.64844,-3.253906 -2.27344,-5.9375 -4.875,-8.054688 -2.60156,-2.117187 -5.55078,-3.179687 -8.85156,-3.179687 -3.39063,0 -6.36719,1.128906 -8.92188,3.386719 -2.55469,2.253906 -4.18359,4.964843 -4.88281,8.125"
       id="path9" />
  </g>
</svg>
